<svg width="789" height="526" viewBox="0 0 789 526" fill="none" xmlns="http://www.w3.org/2000/svg">
<g clip-path="url(#clip0_44_198)">
<path d="M379.875 332.205C363.906 328.71 356.94 312.536 351.375 284.924C347.193 264.156 343.111 245.3 347.974 221.78C351.373 205.319 358.383 190.976 366.012 179.743C374.275 167.571 383.022 151.43 397.28 153.702C416.866 156.829 445.853 200.533 436.555 254.36C426.334 313.492 395.485 335.628 379.875 332.205Z" fill="url(#paint0_linear_44_198)" fill-opacity="0.5"/>
<path d="M589.926 214.834C573.265 223.099 551.151 212.472 551.151 212.472C551.151 212.472 556.066 188.449 572.736 180.195C589.398 171.931 611.503 182.547 611.503 182.547C611.503 182.547 606.588 206.569 589.926 214.834Z" fill="url(#paint1_linear_44_198)" fill-opacity="0.5"/>
<path d="M118.755 382.336C148.26 400.02 190.591 383.673 190.591 383.673C190.591 383.673 185.056 338.662 155.533 320.999C126.028 303.314 83.7156 319.641 83.7156 319.641C83.7156 319.641 89.25 364.653 118.755 382.336Z" fill="url(#paint2_linear_44_198)" fill-opacity="0.5"/>
<path d="M651.171 126.897C644.362 126.897 638.841 132.418 638.841 139.228C638.841 146.038 644.362 151.558 651.171 151.558C657.981 151.558 663.502 146.038 663.502 139.228C663.502 132.418 657.981 126.897 651.171 126.897Z" fill="#2AC68D" fill-opacity="0.8"/>
<path d="M284.545 473.405C276.884 473.405 270.674 479.616 270.674 487.277C270.674 494.938 276.884 501.148 284.545 501.148C292.206 501.148 298.417 494.938 298.417 487.277C298.417 479.616 292.206 473.405 284.545 473.405Z" fill="#2AC68D" fill-opacity="0.8"/>
<path d="M113.818 177.434C107.434 177.434 102.259 172.259 102.259 165.875C102.259 159.491 107.434 154.316 113.818 154.316C120.201 154.316 125.376 159.491 125.376 165.875C125.376 172.259 120.201 177.434 113.818 177.434Z" fill="#2AC68D" fill-opacity="0.8"/>
<path d="M571.729 294.933C568.75 294.933 566.335 292.518 566.335 289.538C566.335 286.559 568.75 284.144 571.729 284.144C574.709 284.144 577.124 286.559 577.124 289.538C577.124 292.518 574.709 294.933 571.729 294.933Z" fill="#2AC68D" fill-opacity="0.8"/>
<path d="M436.747 452.437C432.916 452.437 429.811 449.332 429.811 445.502C429.811 441.671 432.916 438.566 436.747 438.566C440.577 438.566 443.682 441.671 443.682 445.502C443.682 449.332 440.577 452.437 436.747 452.437Z" fill="#E1E4E5" fill-opacity="0.5"/>
<path d="M111.75 404.686C106.218 404.686 101.733 400.201 101.733 394.668C101.733 389.136 106.218 384.651 111.75 384.651C117.283 384.651 121.768 389.136 121.768 394.668C121.768 400.201 117.283 404.686 111.75 404.686Z" fill="#E1E4E5" fill-opacity="0.5"/>
<path d="M210.495 99.7744C206.284 99.7744 202.87 96.3608 202.87 92.15C202.87 87.9392 206.284 84.5256 210.495 84.5256C214.706 84.5256 218.119 87.9392 218.119 92.15C218.119 96.3608 214.706 99.7744 210.495 99.7744Z" fill="#E1E4E5" fill-opacity="0.5"/>
<path d="M306.04 339.532C301.358 339.532 297.563 335.737 297.563 331.056C297.563 326.374 301.358 322.579 306.04 322.579C310.721 322.579 314.516 326.374 314.516 331.056C314.516 335.737 310.721 339.532 306.04 339.532Z" fill="#E1E4E5" fill-opacity="0.5"/>
<path d="M142.057 234.339C143.146 238.4 140.736 242.574 136.675 243.662C132.614 244.75 128.44 242.34 127.352 238.279C126.264 234.218 128.674 230.044 132.735 228.956C136.795 227.868 140.969 230.278 142.057 234.339Z" fill="#E1E4E5" fill-opacity="0.5"/>
<path d="M328.001 84.8587C322.409 84.8587 317.875 80.325 317.875 74.7323C317.875 69.1397 322.409 64.606 328.001 64.606C333.594 64.606 338.128 69.1397 338.128 74.7323C338.128 80.325 333.594 84.8587 328.001 84.8587Z" fill="#E1E4E5" fill-opacity="0.5"/>
<path d="M500.688 373.819C496.386 373.819 492.898 371.029 492.898 367.587C492.898 364.146 496.386 361.356 500.688 361.356C504.99 361.356 508.478 364.146 508.478 367.587C508.478 371.029 504.99 373.819 500.688 373.819Z" fill="#E1E4E5" fill-opacity="0.5"/>
<path d="M515.484 40.9442C517.749 49.3955 512.733 58.0824 504.282 60.3469C495.831 62.6114 487.144 57.596 484.879 49.1447C482.615 40.6934 487.63 32.0065 496.081 29.742C504.533 27.4775 513.22 32.4929 515.484 40.9442Z" fill="#E1E4E5" fill-opacity="0.5"/>
<path d="M607.566 366.063H607.769C608.977 383.161 621.692 383.424 621.692 383.424C621.692 383.424 607.67 383.698 607.67 403.453C607.67 383.698 593.649 383.424 593.649 383.424C593.649 383.424 606.359 383.161 607.566 366.063ZM197.845 456.762H198.026C199.096 472.236 210.379 472.474 210.379 472.474C210.379 472.474 197.937 472.722 197.937 490.603C197.937 472.722 185.496 472.474 185.496 472.474C185.496 472.474 196.774 472.236 197.845 456.762Z" fill="#E1E4E5" fill-opacity="0.5"/>
<g filter="url(#filter0_ii_44_198)">
<path d="M321.495 13.882C321 13.8408 320.504 13.8162 320.007 13.8083C319.842 13.8057 319.679 13.7996 319.515 13.8013C319.165 13.805 318.815 13.8143 318.466 13.8294C318.298 13.8364 318.133 13.8487 317.964 13.8618C317.617 13.8886 317.271 13.9219 316.925 13.9618C316.576 14.0043 316.227 14.0543 315.881 14.1117C315.652 14.1502 315.422 14.195 315.193 14.2414C315.073 14.266 314.952 14.2853 314.832 14.3133C314.482 14.3896 314.132 14.4737 313.781 14.5675L153.283 57.5724C152.179 57.8651 151.1 58.2441 150.056 58.706C149.713 58.8567 149.373 59.0154 149.041 59.1811C140.385 63.5118 135.392 73.078 136.972 82.816C137.093 83.5656 137.254 84.3151 137.455 85.0638L209.195 352.805L225.564 413.889C228.079 423.278 236.171 429.678 245.309 430.467C245.349 430.471 245.39 430.472 245.43 430.474C245.882 430.51 246.338 430.532 246.793 430.539C246.958 430.542 247.121 430.548 247.288 430.546C247.637 430.542 247.987 430.533 248.337 430.518C248.504 430.511 248.67 430.499 248.838 430.485C249.026 430.472 249.214 430.457 249.399 430.437C249.56 430.421 249.717 430.404 249.876 430.386C250.225 430.343 250.573 430.293 250.92 430.236C251.148 430.197 251.378 430.153 251.607 430.107C251.727 430.081 251.848 430.062 251.968 430.035C252.318 429.958 252.668 429.874 253.019 429.781L413.519 386.774C414.259 386.576 414.987 386.341 415.703 386.07C425.61 382.305 431.533 372.015 429.832 361.529C429.71 360.771 429.548 360.021 429.349 359.28L357.61 91.5441L341.243 30.4598C338.722 21.0707 330.63 14.6719 321.495 13.882Z" fill="#2AC68D"/>
</g>
<path d="M258.128 49.4526L219.66 59.7601C218.511 60.0679 217.829 61.2483 218.137 62.3967C218.445 63.5451 219.625 64.2265 220.774 63.9187L259.242 53.6112C260.391 53.3034 261.072 52.123 260.765 50.9746C260.457 49.8263 259.276 49.1448 258.128 49.4526Z" fill="white" fill-opacity="0.5"/>
<path d="M262.192 244.879C262.192 244.879 273.5 248.274 289.68 243.938C305.861 239.603 313.957 231.009 313.957 231.009" stroke="white" stroke-opacity="0.5" stroke-width="13.962" stroke-linecap="round" stroke-linejoin="round"/>
<path d="M249.02 222.96C256.333 221.001 260.709 213.618 258.794 206.471C256.879 199.324 249.398 195.119 242.085 197.079C234.772 199.038 230.396 206.42 232.311 213.567C234.226 220.714 241.707 224.92 249.02 222.96Z" fill="white" fill-opacity="0.5"/>
<path d="M313.802 205.601C321.115 203.642 325.491 196.259 323.576 189.113C321.661 181.966 314.18 177.76 306.867 179.72C299.554 181.679 295.178 189.062 297.093 196.209C299.008 203.356 306.489 207.561 313.802 205.601Z" fill="white" fill-opacity="0.5"/>
<g filter="url(#filter1_ii_44_198)">
<path d="M617.87 466.714C617.87 466.714 577.293 434.576 550.555 430.891C524.099 427.247 454.359 431.52 402.609 409.583C402.124 409.381 401.725 409.016 401.48 408.551C401.235 408.087 401.159 407.551 401.267 407.036C402.088 403.29 405.972 395.314 424.628 396.089C448.913 397.137 467.526 397.458 467.526 397.458C467.526 397.458 392.924 323.717 374.195 302.233C370.495 297.992 367.994 294.168 366.363 290.691C361.283 279.847 375.22 270.107 383.853 278.41L434.388 326.983C434.388 326.983 431.999 319.37 437.336 314.645C442.395 310.19 455.21 312.646 462.694 320.715C462.694 320.715 460.731 311.942 469.167 308.054C477.602 304.167 488.685 310.884 493.387 315.241C493.387 315.241 489.7 307.279 494.968 302.729C500.235 298.179 514.201 302.613 517.949 305.29C521.696 307.967 556.672 324.711 594.569 371.632L668.819 394.63C668.819 394.63 679.212 422.107 617.87 466.714Z" fill="#F8AE9D"/>
</g>
<path d="M647.536 286.145H629.998C628.616 286.144 627.248 286.416 625.971 286.945C624.694 287.473 623.534 288.248 622.557 289.226C621.58 290.203 620.805 291.363 620.276 292.64C619.748 293.916 619.476 295.285 619.476 296.667C619.476 298.048 619.748 299.417 620.277 300.693C620.806 301.97 621.581 303.13 622.558 304.107C623.535 305.084 624.695 305.859 625.971 306.387C627.248 306.916 628.616 307.188 629.998 307.188H637.515C643.05 307.188 647.536 302.702 647.536 297.167V277.126C647.536 271.591 643.05 267.105 637.515 267.105H630.899C628.243 267.105 625.695 268.16 623.815 270.036L622.48 271.363" stroke="#E1E4E5" stroke-opacity="0.5" stroke-width="11" stroke-linecap="round" stroke-linejoin="round"/>
<path d="M654.549 323.224H622.48C609.197 323.224 598.429 312.456 598.429 299.174V275.119C598.429 261.836 609.197 251.069 622.48 251.069H646.535C659.818 251.069 670.585 261.836 670.585 275.119V295.165C670.585 296.744 670.274 298.308 669.67 299.767C669.065 301.226 668.179 302.552 667.062 303.668C665.946 304.784 664.62 305.67 663.16 306.274C661.701 306.878 660.137 307.188 658.558 307.188C652.47 307.188 647.536 302.253 647.536 296.166V285.144M361.893 460.584H349.335C348.345 460.583 347.365 460.778 346.451 461.156C345.537 461.535 344.706 462.089 344.006 462.789C343.307 463.489 342.752 464.32 342.374 465.234C341.995 466.149 341.801 467.129 341.802 468.118C341.801 469.107 341.996 470.087 342.374 471.001C342.753 471.916 343.308 472.746 344.007 473.446C344.707 474.146 345.537 474.7 346.452 475.079C347.366 475.457 348.346 475.652 349.335 475.651H354.719C355.661 475.651 356.594 475.466 357.464 475.105C358.335 474.744 359.126 474.216 359.792 473.55C360.458 472.883 360.987 472.092 361.347 471.222C361.708 470.351 361.893 469.418 361.893 468.476V454.126C361.893 452.223 361.137 450.398 359.792 449.052C358.446 447.706 356.621 446.95 354.719 446.95H349.981C348.079 446.951 346.255 447.706 344.908 449.049L343.952 449.998" stroke="#E1E4E5" stroke-opacity="0.5" stroke-width="11" stroke-linecap="round" stroke-linejoin="round"/>
<path d="M366.915 487.135H343.952C334.441 487.135 326.731 479.424 326.731 469.914V452.689C326.731 443.178 334.441 435.468 343.952 435.468H361.177C370.688 435.468 378.398 443.178 378.398 452.689V467.042C378.398 468.173 378.176 469.293 377.743 470.338C377.31 471.383 376.676 472.332 375.876 473.132C375.076 473.931 374.127 474.565 373.082 474.997C372.037 475.43 370.917 475.652 369.786 475.651C368.749 475.651 367.723 475.447 366.766 475.051C365.808 474.654 364.938 474.073 364.205 473.34C363.472 472.607 362.891 471.737 362.494 470.78C362.097 469.822 361.893 468.796 361.893 467.76V459.867" stroke="#E1E4E5" stroke-opacity="0.5" stroke-width="11" stroke-linecap="round" stroke-linejoin="round"/>
<path d="M472.825 260.867C444.782 260.867 422.049 238.134 422.049 210.09C422.049 182.047 444.782 159.314 472.825 159.314C500.868 159.314 523.602 182.047 523.602 210.09C523.602 238.134 500.868 260.867 472.825 260.867Z" fill="#2AC68D" fill-opacity="0.8"/>
<path fill-rule="evenodd" clip-rule="evenodd" d="M490.334 227.856V230.355C490.333 231.017 490.069 231.653 489.6 232.121C489.131 232.589 488.495 232.852 487.833 232.852H457.817C457.154 232.852 456.519 232.589 456.05 232.121C455.581 231.653 455.317 231.017 455.316 230.355V227.816C455.316 220.255 463.965 215.343 472.825 215.343C481.685 215.343 490.334 220.258 490.334 227.816M479.015 193.394C482.434 196.813 482.434 202.356 479.015 205.775C475.596 209.194 470.053 209.194 466.634 205.775C463.215 202.356 463.215 196.813 466.634 193.394C470.053 189.975 475.596 189.975 479.015 193.394Z" fill="white" fill-opacity="0.5"/>
<path d="M137.878 480.008C109.835 480.008 87.1012 457.275 87.1012 429.232C87.1012 401.189 109.835 378.455 137.878 378.455C165.921 378.455 188.654 401.189 188.654 429.232C188.654 457.275 165.921 480.008 137.878 480.008Z" fill="#2AC68D" fill-opacity="0.8"/>
<path fill-rule="evenodd" clip-rule="evenodd" d="M155.387 446.997V449.495C155.387 450.158 155.123 450.793 154.654 451.262C154.185 451.73 153.549 451.994 152.886 451.994H122.87C122.207 451.994 121.571 451.73 121.102 451.262C120.633 450.793 120.37 450.158 120.369 449.495V446.956C120.369 439.396 129.019 434.484 137.879 434.484C146.738 434.484 155.387 439.398 155.387 446.956M144.069 412.535C147.488 415.954 147.488 421.497 144.069 424.916C140.65 428.335 135.107 428.335 131.688 424.916C128.269 421.497 128.269 415.954 131.688 412.535C135.107 409.117 140.65 409.117 144.069 412.535Z" fill="white" fill-opacity="0.5"/>
<path d="M669.974 210.557C673.972 208.249 678.508 207.033 683.124 207.033C687.741 207.033 692.276 208.249 696.274 210.557L703.206 214.558C707.204 216.866 710.524 220.186 712.832 224.185C715.141 228.183 716.356 232.718 716.356 237.335V245.339C716.356 249.955 715.141 254.491 712.832 258.489C710.524 262.487 707.204 265.807 703.206 268.115L696.274 272.117C692.276 274.426 687.741 275.641 683.124 275.641C678.508 275.641 673.972 274.426 669.974 272.117L663.042 268.115C659.044 265.807 655.724 262.487 653.416 258.489C651.107 254.491 649.892 249.955 649.892 245.339V237.335C649.892 232.718 651.107 228.183 653.416 224.185C655.724 220.186 659.044 216.866 663.042 214.558L669.974 210.557Z" fill="#2AC68D" fill-opacity="0.8"/>
<path d="M694.993 234.168L680.986 248.063L672.582 239.726" stroke="white" stroke-opacity="0.5" stroke-width="8.45" stroke-linecap="round" stroke-linejoin="round"/>
<path d="M104.307 248.862C108.305 246.554 112.84 245.338 117.457 245.338C122.073 245.338 126.609 246.554 130.607 248.862L137.538 252.863C141.537 255.171 144.857 258.491 147.165 262.49C149.473 266.488 150.688 271.023 150.688 275.64V283.644C150.688 288.26 149.473 292.796 147.165 296.794C144.857 300.792 141.537 304.112 137.538 306.42L130.607 310.422C126.609 312.731 122.073 313.946 117.457 313.946C112.84 313.946 108.305 312.731 104.307 310.422L97.3749 306.42C93.3767 304.112 90.0566 300.792 87.7483 296.794C85.44 292.796 84.2248 288.26 84.2249 283.644V275.64C84.2248 271.023 85.44 266.488 87.7483 262.49C90.0566 258.491 93.3767 255.171 97.3749 252.863L104.307 248.862Z" fill="#2AC68D" fill-opacity="0.8"/>
<path d="M129.325 272.473L115.319 286.368L106.915 278.031" stroke="white" stroke-opacity="0.5" stroke-width="8.45" stroke-linecap="round" stroke-linejoin="round"/>
<path d="M548.823 84.9515C552.821 82.6432 557.356 81.428 561.973 81.428C566.59 81.428 571.125 82.6432 575.123 84.9515L582.055 88.9535C586.053 91.2618 589.373 94.5819 591.681 98.5801C593.99 102.578 595.205 107.114 595.205 111.73V119.734C595.205 124.351 593.989 128.886 591.681 132.884C589.373 136.882 586.053 140.202 582.055 142.51L575.123 146.512C571.125 148.82 566.59 150.035 561.973 150.035C557.356 150.035 552.821 148.82 548.823 146.512L541.891 142.51C537.893 140.202 534.573 136.882 532.265 132.884C529.957 128.886 528.741 124.351 528.741 119.734V111.73C528.741 107.114 529.956 102.578 532.265 98.5801C534.573 94.5819 537.893 91.2618 541.891 88.9535L548.823 84.9515Z" fill="#2AC68D" fill-opacity="0.8"/>
<path d="M573.841 108.564L559.835 122.458L551.431 114.121" stroke="white" stroke-opacity="0.5" stroke-width="8.45" stroke-linecap="round" stroke-linejoin="round"/>
</g>
<defs>
<filter id="filter0_ii_44_198" x="132.682" y="9.80103" width="309.44" height="428.745" filterUnits="userSpaceOnUse" color-interpolation-filters="sRGB">
<feFlood flood-opacity="0" result="BackgroundImageFix"/>
<feBlend mode="normal" in="SourceGraphic" in2="BackgroundImageFix" result="shape"/>
<feColorMatrix in="SourceAlpha" type="matrix" values="0 0 0 0 0 0 0 0 0 0 0 0 0 0 0 0 0 0 127 0" result="hardAlpha"/>
<feOffset dx="12" dy="8"/>
<feGaussianBlur stdDeviation="6"/>
<feComposite in2="hardAlpha" operator="arithmetic" k2="-1" k3="1"/>
<feColorMatrix type="matrix" values="0 0 0 0 0 0 0 0 0 0 0 0 0 0 0 0 0 0 0.25 0"/>
<feBlend mode="normal" in2="shape" result="effect1_innerShadow_44_198"/>
<feColorMatrix in="SourceAlpha" type="matrix" values="0 0 0 0 0 0 0 0 0 0 0 0 0 0 0 0 0 0 127 0" result="hardAlpha"/>
<feOffset dx="-4" dy="-4"/>
<feGaussianBlur stdDeviation="8"/>
<feComposite in2="hardAlpha" operator="arithmetic" k2="-1" k3="1"/>
<feColorMatrix type="matrix" values="0 0 0 0 0 0 0 0 0 0 0 0 0 0 0 0 0 0 0.25 0"/>
<feBlend mode="normal" in2="effect1_innerShadow_44_198" result="effect2_innerShadow_44_198"/>
</filter>
<filter id="filter1_ii_44_198" x="361.279" y="273.295" width="312.206" height="197.419" filterUnits="userSpaceOnUse" color-interpolation-filters="sRGB">
<feFlood flood-opacity="0" result="BackgroundImageFix"/>
<feBlend mode="normal" in="SourceGraphic" in2="BackgroundImageFix" result="shape"/>
<feColorMatrix in="SourceAlpha" type="matrix" values="0 0 0 0 0 0 0 0 0 0 0 0 0 0 0 0 0 0 127 0" result="hardAlpha"/>
<feOffset dx="8" dy="4"/>
<feGaussianBlur stdDeviation="2"/>
<feComposite in2="hardAlpha" operator="arithmetic" k2="-1" k3="1"/>
<feColorMatrix type="matrix" values="0 0 0 0 0 0 0 0 0 0 0 0 0 0 0 0 0 0 0.25 0"/>
<feBlend mode="normal" in2="shape" result="effect1_innerShadow_44_198"/>
<feColorMatrix in="SourceAlpha" type="matrix" values="0 0 0 0 0 0 0 0 0 0 0 0 0 0 0 0 0 0 127 0" result="hardAlpha"/>
<feOffset dx="-4" dy="-2"/>
<feGaussianBlur stdDeviation="2"/>
<feComposite in2="hardAlpha" operator="arithmetic" k2="-1" k3="1"/>
<feColorMatrix type="matrix" values="0 0 0 0 0 0 0 0 0 0 0 0 0 0 0 0 0 0 0.25 0"/>
<feBlend mode="normal" in2="effect1_innerShadow_44_198" result="effect2_innerShadow_44_198"/>
</filter>
<linearGradient id="paint0_linear_44_198" x1="275.787" y1="307.595" x2="561.262" y2="146.334" gradientUnits="userSpaceOnUse">
<stop stop-color="white"/>
<stop offset="1" stop-color="#EEEEEE"/>
</linearGradient>
<linearGradient id="paint1_linear_44_198" x1="525.945" y1="240.615" x2="663.369" y2="131.912" gradientUnits="userSpaceOnUse">
<stop stop-color="white"/>
<stop offset="1" stop-color="#EEEEEE"/>
</linearGradient>
<linearGradient id="paint2_linear_44_198" x1="232.932" y1="439.259" x2="-4.47621" y2="218.675" gradientUnits="userSpaceOnUse">
<stop stop-color="white"/>
<stop offset="1" stop-color="#EEEEEE"/>
</linearGradient>
<clipPath id="clip0_44_198">
<rect width="789" height="526" fill="white"/>
</clipPath>
</defs>
</svg>
