<svg width="28" height="20" viewBox="0 0 28 20" fill="none" xmlns="http://www.w3.org/2000/svg">
<path d="M14.0001 19.3333C11.8133 19.3605 9.64901 18.8885 7.67208 17.9533C6.13967 17.2056 4.76361 16.1729 3.61741 14.9107C2.40332 13.6055 1.44737 12.0821 0.800081 10.4213L0.666748 10L0.806748 9.57867C1.45451 7.9192 2.4084 6.39633 3.61875 5.08931C4.76453 3.82705 6.14013 2.79445 7.67208 2.04664C9.64903 1.11143 11.8133 0.639453 14.0001 0.66664C16.1869 0.639507 18.3511 1.11147 20.3281 2.04664C21.8605 2.79428 23.2366 3.82689 24.3827 5.08931C25.5991 6.39271 26.5554 7.9164 27.2001 9.57867L27.3334 10L27.1934 10.4213C25.1017 15.8664 19.8323 19.4257 14.0001 19.3333ZM14.0001 3.33331C9.46124 3.19108 5.29531 5.83343 3.48941 10C5.29501 14.1668 9.46113 16.8092 14.0001 16.6667C18.5389 16.8085 22.7046 14.1663 24.5107 10C22.7073 5.83141 18.5397 3.18808 14.0001 3.33331ZM14.0001 14C12.0765 14.0127 10.4126 12.6631 10.028 10.7784C9.64349 8.8936 10.6458 7 12.4206 6.25819C14.1954 5.51637 16.247 6.13348 17.3181 7.73133C18.3893 9.3292 18.1806 11.4615 16.8201 12.8213C16.0751 13.5749 15.0598 13.9993 14.0001 14Z" fill="white"/>
</svg>
